<?xml version="1.0" encoding="utf-8"?>
<!-- Generator: Adobe Illustrator 22.0.1, SVG Export Plug-In . SVG Version: 6.00 Build 0)  -->
<svg version="1.1" id="Layer_1" xmlns="http://www.w3.org/2000/svg" xmlns:xlink="http://www.w3.org/1999/xlink" x="0px" y="0px"
	 viewBox="0 0 1920.6 981.1" style="enable-background:new 0 0 1920.6 981.1;" xml:space="preserve">
<style type="text/css">
	.st0{fill:none;}
	.st1{fill:#C09473;}
	.st2{clip-path:url(#SVGID_2_);}
	.st3{opacity:0.3;clip-path:url(#SVGID_4_);}
	.st4{clip-path:url(#SVGID_6_);fill:#C09473;}
	.st5{opacity:8.000180e-02;clip-path:url(#SVGID_4_);}
	.st6{clip-path:url(#SVGID_8_);fill:url(#SVGID_9_);}
</style>
<pattern  y="981.1" width="150" height="150" patternUnits="userSpaceOnUse" id="Unnamed_Pattern" viewBox="0 -150 150 150" style="overflow:visible;">
	<g>
		<rect y="-150" class="st0" width="150" height="150"/>
		<path class="st1" d="M149.3-150v23.2L126.1-150h-2.1l-23.2,23.2V-150h-1.5v25v48.2l-23.5-23.5V-150h-1.5v49.7L50.8-76.8V-125v-25
			h-1.5v23.2L26.1-150h-2.1L0.8-126.8V-150H0V0h0.8v-23.2L23.9,0h2.1l23.2-23.2V0h1.5v-25v-48.2l23.5,23.5V0h1.5v-49.7l23.5-23.5
			V-25V0h1.5v-23.2L123.9,0h2.1l23.2-23.2V0h0.8v-150H149.3z M1.1-25L25-48.9L48.9-25L25-1.1L1.1-25z M0.8-123.2l23.5,23.5v49.4
			L0.8-26.8V-123.2z M48.9-125L25-101.1L1.1-125L25-148.9L48.9-125z M49.3-26.8L25.8-50.3v-49.4l23.5-23.5V-75V-26.8z M98.9-75
			L75-51.1L51.1-75L75-98.9L98.9-75z M101.1-25L125-48.9L148.9-25L125-1.1L101.1-25z M100.8-123.2l23.5,23.5v49.4l-23.5,23.5V-75
			V-123.2z M148.9-125L125-101.1L101.1-125l23.9-23.9L148.9-125z M149.3-123.2v96.4l-23.5-23.5v-49.4L149.3-123.2z"/>
	</g>
</pattern>
<g>
	<defs>
		<rect id="SVGID_1_" width="1920.6" height="981.1"/>
	</defs>
	<clipPath id="SVGID_2_">
		<use xlink:href="#SVGID_1_"  style="overflow:visible;"/>
	</clipPath>
	<g class="st2">
		<defs>
			<rect id="SVGID_3_" width="1920.6" height="981.1"/>
		</defs>
		<clipPath id="SVGID_4_">
			<use xlink:href="#SVGID_3_"  style="overflow:visible;"/>
		</clipPath>
		<g class="st3">
			<g>
				<defs>
					<rect id="SVGID_5_" width="1920.3" height="981.1"/>
				</defs>
				<clipPath id="SVGID_6_">
					<use xlink:href="#SVGID_5_"  style="overflow:visible;"/>
				</clipPath>
				<rect class="st4" width="1920.3" height="981.1"/>
			</g>
		</g>
		<g class="st5">
			<g>
				<defs>
					<rect id="SVGID_7_" x="0.3" width="1920.3" height="981.1"/>
				</defs>
				<clipPath id="SVGID_8_">
					<use xlink:href="#SVGID_7_"  style="overflow:visible;"/>
				</clipPath>
				<pattern  id="SVGID_9_" xlink:href="#Unnamed_Pattern" patternTransform="matrix(1 0 0 -1 450.5098 1660.9102)">
				</pattern>
				<rect x="0.3" class="st6" width="1920.3" height="981.1"/>
			</g>
		</g>
	</g>
</g>
</svg>
