<?xml version="1.0" encoding="utf-8"?>
<!-- Generator: Adobe Illustrator 24.2.0, SVG Export Plug-In . SVG Version: 6.00 Build 0)  -->
<svg version="1.1" id="Isolation_Mode" xmlns="http://www.w3.org/2000/svg" xmlns:xlink="http://www.w3.org/1999/xlink" x="0px"
	 y="0px" viewBox="0 0 55.8 55" style="enable-background:new 0 0 55.8 55;" xml:space="preserve">
<style type="text/css">
	.st0{fill:url(#SVGID_1_);}
	.st1{fill:url(#SVGID_2_);}
	.st2{fill:url(#SVGID_3_);}
	.st3{fill:url(#SVGID_4_);}
	.st4{fill:url(#SVGID_5_);}
	.st5{fill:url(#SVGID_6_);}
</style>
<g>
	<linearGradient id="SVGID_1_" gradientUnits="userSpaceOnUse" x1="0" y1="35.1115" x2="12.8233" y2="35.1115">
		<stop  offset="3.513510e-02" style="stop-color:#FCEE21"/>
		<stop  offset="1" style="stop-color:#FBB03B"/>
	</linearGradient>
	<polygon class="st0" points="12.8,55 0,55 0,24.6 12.8,15.2 	"/>
	<linearGradient id="SVGID_2_" gradientUnits="userSpaceOnUse" x1="15.4084" y1="30.5047" x2="28.2317" y2="30.5047">
		<stop  offset="3.513510e-02" style="stop-color:#FCEE21"/>
		<stop  offset="1" style="stop-color:#FBB03B"/>
	</linearGradient>
	<polygon class="st1" points="28.2,55 15.4,55 15.4,15.4 28.2,6 	"/>
	<linearGradient id="SVGID_3_" gradientUnits="userSpaceOnUse" x1="19.2349" y1="12.2801" x2="19.2349" y2="45.0301">
		<stop  offset="0" style="stop-color:#0071BC"/>
		<stop  offset="1" style="stop-color:#2E3192"/>
	</linearGradient>
	<polygon class="st2" points="12.8,15.2 25.6,20.7 25.6,55 12.8,55 	"/>
	<linearGradient id="SVGID_4_" gradientUnits="userSpaceOnUse" x1="30.1313" y1="27.4937" x2="42.9546" y2="27.4937">
		<stop  offset="3.513510e-02" style="stop-color:#FCEE21"/>
		<stop  offset="1" style="stop-color:#FBB03B"/>
	</linearGradient>
	<polygon class="st3" points="43,55 30.1,55 30.1,9.4 43,0 	"/>
	<linearGradient id="SVGID_5_" gradientUnits="userSpaceOnUse" x1="34.6434" y1="12.2801" x2="34.6434" y2="45.0301">
		<stop  offset="0" style="stop-color:#0071BC"/>
		<stop  offset="1" style="stop-color:#2E3192"/>
	</linearGradient>
	<polygon class="st4" points="28.2,6 41.1,11.3 41.1,55 28.2,55 	"/>
	<linearGradient id="SVGID_6_" gradientUnits="userSpaceOnUse" x1="49.3662" y1="12.2801" x2="49.3662" y2="45.0301">
		<stop  offset="0" style="stop-color:#0071BC"/>
		<stop  offset="1" style="stop-color:#2E3192"/>
	</linearGradient>
	<polygon class="st5" points="43,0 55.8,5.2 55.8,55 43,55 	"/>
</g>
</svg>
