<?xml version="1.0" encoding="utf-8"?>
<!-- Generator: Adobe Illustrator 24.2.0, SVG Export Plug-In . SVG Version: 6.00 Build 0)  -->
<svg version="1.1" id="Isolation_Mode" xmlns="http://www.w3.org/2000/svg" xmlns:xlink="http://www.w3.org/1999/xlink" x="0px"
	 y="0px" viewBox="0 0 88.5 64" style="enable-background:new 0 0 88.5 64;" xml:space="preserve">
<style type="text/css">
	.st0{fill:#0071BC;}
	.st1{fill:#2E3192;}
	.st2{fill:#29ABE2;}
	.st3{fill:#76D3F4;}
</style>
<g>
	<polygon class="st0" points="14.1,32 29.5,48 29.5,64 14.1,48 	"/>
	<polygon class="st1" points="14.1,32 0,48 0,64 14.1,48 	"/>
	<polygon class="st2" points="14.1,16 29.5,32 29.5,48 14.1,32 	"/>
	<polygon class="st0" points="14.1,16 0,32 0,48 14.1,32 	"/>
	<polygon class="st0" points="14.1,0 29.5,16 29.5,32 14.1,16 	"/>
	<polygon class="st1" points="14.1,0 0,16 0,32 14.1,16 	"/>
	<polygon class="st2" points="43.6,32 59,48 59,64 43.6,48 	"/>
	<polygon class="st0" points="43.6,32 29.5,48 29.5,64 43.6,48 	"/>
	<polygon class="st3" points="43.6,16 59,32 59,48 43.6,32 	"/>
	<polygon class="st2" points="43.6,16 29.5,32 29.5,48 43.6,32 	"/>
	<polygon class="st3" points="73.1,32 88.5,48 88.5,64 73.1,48 	"/>
	<polygon class="st2" points="73.1,32 59,48 59,64 73.1,48 	"/>
</g>
</svg>
