<?xml version="1.0" encoding="utf-8"?>
<!-- Generator: Adobe Illustrator 24.2.0, SVG Export Plug-In . SVG Version: 6.00 Build 0)  -->
<svg version="1.1" id="Isolation_Mode" xmlns="http://www.w3.org/2000/svg" xmlns:xlink="http://www.w3.org/1999/xlink" x="0px"
	 y="0px" viewBox="0 0 110.1 60" style="enable-background:new 0 0 110.1 60;" xml:space="preserve">
<style type="text/css">
	.st0{fill:url(#SVGID_1_);}
	.st1{fill:url(#SVGID_2_);}
</style>
<g>
	<linearGradient id="SVGID_1_" gradientUnits="userSpaceOnUse" x1="11.2229" y1="-14.7943" x2="69.4596" y2="52.4019">
		<stop  offset="3.513510e-02" style="stop-color:#29ABE2"/>
		<stop  offset="1" style="stop-color:#1B1464"/>
	</linearGradient>
	<path class="st0" d="M31.3,51c1.9-0.2,3.9-0.5,5.9-0.6V48h11.9v1.7c1.4,0,2.8-0.1,4.2-0.1c0.6,0,1.1,0,1.7,0v-3.1h11.9v3.6
		c2,0.2,4,0.3,5.9,0.6v-1.1h11.9v2.9c2,0.4,4,0.8,5.9,1.3V21.2L84.7,16H72.9V5.3L66.9,0H55v1.5h11.9v4.9H55v1.5h11.9v4.9H55v0.4
		l-5.9-5.3H37.2v1.5h11.9v4.9H37.2v1.5h11.9v4.9H37.2v1.5h11.9v4.9H37.2v1.2l-5.9-5.3H19.4v1.5h11.9v4.9H19.4V31h11.9v4.9H19.4v1.5
		h11.9v4.9H19.4v1.5h11.9v4.9H19.4v1.5h11.9V51z M72.9,17.5h11.9v4.9H72.9V17.5z M72.9,23.9h11.9v4.9H72.9V23.9z M72.9,30.3h11.9
		v4.9H72.9V30.3z M72.9,36.7h11.9v4.9H72.9V36.7z M72.9,43.2h11.9v4.9H72.9V43.2z M55,14.3h11.9v4.9H55V14.3z M55,20.8h11.9v4.9H55
		V20.8z M55,27.2h11.9v4.9H55V27.2z M55,33.6h11.9v4.9H55V33.6z M55,40h11.9V45H55V40z M37.2,28.7h11.9v4.9H37.2V28.7z M37.2,35.1
		h11.9V40H37.2V35.1z M37.2,41.5h11.9v4.9H37.2V41.5z"/>
	<linearGradient id="SVGID_2_" gradientUnits="userSpaceOnUse" x1="48.0841" y1="47.6527" x2="51.204" y2="53.1724">
		<stop  offset="3.513510e-02" style="stop-color:#FCEE21"/>
		<stop  offset="1" style="stop-color:#FBB03B"/>
	</linearGradient>
	<path class="st1" d="M110.1,60c-8.8-3.3-18-5.2-27.2-6.5c-9.2-1.2-18.5-1.8-27.8-1.8c-9.3,0-18.6,0.6-27.8,1.8
		C18,54.8,8.8,56.6,0,60c8.1-4.9,17.4-7.8,26.7-9.7c9.3-1.9,18.9-2.7,28.4-2.8c9.5,0.1,19,0.8,28.4,2.8C92.7,52.1,102,55,110.1,60z"
		/>
</g>
</svg>
