<?xml version="1.0" encoding="utf-8"?>
<!-- Generator: Adobe Illustrator 24.2.0, SVG Export Plug-In . SVG Version: 6.00 Build 0)  -->
<svg version="1.1" id="Isolation_Mode" xmlns="http://www.w3.org/2000/svg" xmlns:xlink="http://www.w3.org/1999/xlink" x="0px"
	 y="0px" viewBox="0 0 86.2 50" style="enable-background:new 0 0 86.2 50;" xml:space="preserve">
<style type="text/css">
	.st0{fill:url(#SVGID_1_);}
	.st1{fill:#F2F2F2;}
	.st2{fill:url(#SVGID_2_);}
	.st3{fill:url(#SVGID_3_);}
	.st4{fill:url(#SVGID_4_);}
	.st5{fill:url(#SVGID_5_);}
</style>
<g>
	<linearGradient id="SVGID_1_" gradientUnits="userSpaceOnUse" x1="43.0774" y1="40.7453" x2="43.0774" y2="23.4314">
		<stop  offset="0" style="stop-color:#0071BC"/>
		<stop  offset="1" style="stop-color:#29ABE2"/>
	</linearGradient>
	<polygon class="st0" points="57.4,33.2 57.4,50 28.7,50 28.7,0 	"/>
	<polygon class="st1" points="28.7,50 57.4,50 28.7,19.9 	"/>
	
		<linearGradient id="SVGID_2_" gradientUnits="userSpaceOnUse" x1="-802.8627" y1="14.5563" x2="-792.7688" y2="44.2444" gradientTransform="matrix(-1 0 0 1 -747.7464 0)">
		<stop  offset="0" style="stop-color:#0071BC"/>
		<stop  offset="1" style="stop-color:#2E3192"/>
	</linearGradient>
	<polygon class="st2" points="57.4,19.9 57.4,50 28.7,50 	"/>
	<linearGradient id="SVGID_3_" gradientUnits="userSpaceOnUse" x1="71.8452" y1="50.845" x2="70.4443" y2="25.9791">
		<stop  offset="0" style="stop-color:#0071BC"/>
		<stop  offset="1" style="stop-color:#29ABE2"/>
	</linearGradient>
	<polygon class="st3" points="57.4,19.9 57.4,50 86.2,50 	"/>
	<linearGradient id="SVGID_4_" gradientUnits="userSpaceOnUse" x1="12.8078" y1="9.4695" x2="14.6575" y2="27.9655">
		<stop  offset="0" style="stop-color:#0071BC"/>
		<stop  offset="1" style="stop-color:#2E3192"/>
	</linearGradient>
	<polygon class="st4" points="0,33.2 0,50 28.7,50 28.7,0 	"/>
	<linearGradient id="SVGID_5_" gradientUnits="userSpaceOnUse" x1="14.0548" y1="32.2592" x2="16.4131" y2="52.7898">
		<stop  offset="0" style="stop-color:#0071BC"/>
		<stop  offset="1" style="stop-color:#29ABE2"/>
	</linearGradient>
	<polygon class="st5" points="0,50 28.7,50 28.7,19.9 	"/>
</g>
</svg>
