<?xml version="1.0" encoding="utf-8"?>
<!-- Generator: Adobe Illustrator 22.0.1, SVG Export Plug-In . SVG Version: 6.00 Build 0)  -->
<svg version="1.1" id="Layer_1" xmlns="http://www.w3.org/2000/svg" xmlns:xlink="http://www.w3.org/1999/xlink" x="0px" y="0px"
	 viewBox="0 0 278.2 193.5" style="enable-background:new 0 0 278.2 193.5;" xml:space="preserve">
<style type="text/css">
	.st0{clip-path:url(#SVGID_2_);fill:#C09473;}
</style>
<g>
	<defs>
		<rect id="SVGID_1_" width="278.2" height="193.5"/>
	</defs>
	<clipPath id="SVGID_2_">
		<use xlink:href="#SVGID_1_"  style="overflow:visible;"/>
	</clipPath>
	<path class="st0" d="M278.2,104.8v31.7l0,4.4H0V90l1.9-2.1h1.4V57c0,0,8.1-3.8,13.5,1.3v1.7l5.9,1v18.8l9.5,1v-7.3
		c0,0,1.7-1.9,5.7-1l10.2,1.7V37.4h2.9v-3.8h4.8v-2.7l10.5-0.2c0,0,4.3,5.4,8.6,5.2h4.3v-4.2l1.2-1.3V15l25.2-3.6l3.1,2.7v7.3
		l0.9-0.4V0l17.6,5.4v81l2.6,1.7v-6.9l0.7-1.7V67l3.1-1v-8.6h12.8v7.7l3.3,1.3v14.4l1.2,1.3v32l2.9-0.6h12.8v2.3l2.1,0.8V42.6l2.4-1
		l0.2-22.1l3.6-3.8V7.9l0.5-1.9h15.2v9.8l3.1,3.1v21.7l2.6,1.5v18.2l18.3,2.7v73.5l0.2,1.3h3.1V77.7h2.6v-1.9h3.8v1.7l9.5,0.4V76
		h2.1v61.4l9.5,0.4V95.2l16.9-5.2l11.6,0.4v14.4H278.2z"/>
	<polygon class="st0" points="0,148.7 3.5,148.7 3.5,157.2 19.9,157.2 19.9,148.7 23.4,148.7 23.4,169.7 19.9,169.7 19.9,160.3 
		3.5,160.3 3.5,169.7 0,169.7 	"/>
	<path class="st0" d="M37,148.7h4.6l11.4,21H49l-2.7-5.2H32.2l-2.7,5.2h-3.6L37,148.7z M44.7,161.4l-5.4-10.3l-5.5,10.3H44.7z"/>
	<polygon class="st0" points="66.3,169.7 62.7,169.7 62.7,152 53.2,152 53.2,148.7 75.8,148.7 75.8,152 66.3,152 	"/>
	<path class="st0" d="M87.2,148.7h4.6l11.4,21h-4.1l-2.7-5.2H82.3l-2.7,5.2H76L87.2,148.7z M94.8,161.4l-5.4-10.3l-5.5,10.3H94.8z"
		/>
	<polygon class="st0" points="105.6,148.7 108.1,148.7 125.8,164.4 125.8,148.7 129.3,148.7 129.3,169.7 126.8,169.7 109.1,154 
		109.1,169.7 105.6,169.7 	"/>
	<path class="st0" d="M154.7,154.7V152h-16.4v14.4h16.4v-5.6h-8.5v-3.1h12v7.4c0,0.9-0.1,1.6-0.3,2.2c-0.2,0.6-0.4,1.1-0.8,1.4
		c-0.4,0.4-0.8,0.6-1.4,0.8c-0.6,0.2-1.3,0.2-2.1,0.2h-14.2c-0.9,0-1.6-0.1-2.2-0.2c-0.6-0.2-1-0.4-1.4-0.8
		c-0.4-0.4-0.6-0.8-0.8-1.4c-0.2-0.6-0.2-1.3-0.2-2.2v-11.7c0-1.7,0.3-2.9,1-3.6c0.7-0.7,1.9-1,3.6-1h14.2c1.7,0,2.9,0.3,3.6,1
		c0.7,0.7,1,1.9,1,3.6v0.6L154.7,154.7z"/>
	<path class="st0" d="M163.8,148.7h14.4c1.5,0,2.7,0.1,3.6,0.3c0.9,0.2,1.7,0.5,2.4,1c1.1,0.7,1.9,1.6,2.3,2.9
		c0.5,1.2,0.7,2.9,0.7,4.9v3c0,1.2-0.1,2.2-0.2,3.1c-0.1,0.8-0.4,1.6-0.7,2.3c-0.5,1.1-1.2,1.9-2.1,2.4c-0.7,0.5-1.5,0.8-2.4,1
		c-0.9,0.2-2.1,0.3-3.6,0.3h-14.4V148.7z M178.2,166.4c0.9,0,1.6-0.1,2.1-0.2c0.5-0.1,1-0.3,1.4-0.6c0.6-0.4,1.1-1,1.4-1.7
		c0.3-0.7,0.4-1.7,0.4-2.9v-3.6c0-0.7,0-1.3-0.1-1.8c-0.1-0.5-0.2-1-0.4-1.4c-0.4-0.8-0.9-1.3-1.6-1.7c-0.7-0.3-1.8-0.5-3.2-0.5
		h-10.9v14.4H178.2z"/>
	<path class="st0" d="M215.7,165.1c0,0.9-0.1,1.6-0.3,2.2c-0.2,0.6-0.4,1.1-0.8,1.4c-0.4,0.4-0.8,0.6-1.4,0.8
		c-0.6,0.2-1.3,0.2-2.1,0.2h-14.2c-0.9,0-1.6-0.1-2.2-0.2c-0.6-0.2-1-0.4-1.4-0.8c-0.4-0.4-0.6-0.8-0.8-1.4
		c-0.2-0.6-0.2-1.3-0.2-2.2v-11.7c0-1.7,0.3-2.9,1-3.6c0.7-0.7,1.9-1,3.6-1h14.2c1.7,0,2.9,0.3,3.6,1c0.7,0.7,1,1.9,1,3.6V165.1z
		 M212.2,152h-16.4v14.4h16.4V152z"/>
	<polygon class="st0" points="232.1,169.7 228.6,169.7 228.6,152 219,152 219,148.7 241.7,148.7 241.7,152 232.1,152 	"/>
	<polygon class="st0" points="245.3,148.7 248.8,148.7 248.8,157.2 265.2,157.2 265.2,148.7 268.7,148.7 268.7,169.7 265.2,169.7 
		265.2,160.3 248.8,160.3 248.8,169.7 245.3,169.7 	"/>
	<rect x="274.7" y="148.7" class="st0" width="3.5" height="21"/>
	<path class="st0" d="M52.5,184.6V182H41.8v8.7h10.7v-2.9l2.9,0.6v1.9c0,0.6-0.1,1.1-0.2,1.5c-0.1,0.4-0.3,0.7-0.5,1
		c-0.2,0.2-0.6,0.4-1,0.5c-0.4,0.1-0.9,0.2-1.5,0.2H42c-0.6,0-1.1-0.1-1.5-0.2c-0.4-0.1-0.7-0.3-1-0.5c-0.2-0.2-0.4-0.6-0.5-1
		c-0.1-0.4-0.2-0.9-0.2-1.5v-8c0-1.2,0.2-2,0.7-2.4c0.5-0.5,1.3-0.7,2.4-0.7h10.3c1.2,0,2,0.2,2.4,0.7c0.5,0.5,0.7,1.3,0.7,2.4v1.6
		L52.5,184.6z"/>
	<path class="st0" d="M76.1,190.4c0,0.6-0.1,1.1-0.2,1.5c-0.1,0.4-0.3,0.7-0.5,1c-0.2,0.2-0.6,0.4-1,0.5c-0.4,0.1-0.9,0.2-1.5,0.2
		H62.7c-0.6,0-1.1-0.1-1.5-0.2c-0.4-0.1-0.7-0.3-1-0.5c-0.2-0.2-0.4-0.6-0.5-1c-0.1-0.4-0.2-0.9-0.2-1.5v-8c0-1.2,0.2-2,0.7-2.4
		c0.5-0.5,1.3-0.7,2.4-0.7h10.3c1.2,0,2,0.2,2.4,0.7c0.5,0.5,0.7,1.3,0.7,2.4V190.4z M73.1,182H62.4v8.7h10.7V182z"/>
	<path class="st0" d="M80.5,193.5v-14.3h11.8c0.6,0,1,0,1.3,0.1c0.3,0.1,0.6,0.2,0.9,0.3c0.4,0.2,0.7,0.5,0.8,0.9
		c0.2,0.4,0.2,1,0.2,1.8v2.6c0,0.5,0,0.8-0.1,1.1c0,0.3-0.1,0.5-0.2,0.8c-0.2,0.5-0.5,0.8-1,1c-0.4,0.2-1.1,0.3-2,0.3h-1.5l6.1,5.4
		h-4.2l-5.7-5.4h-3.6v5.4H80.5z M91.5,185.5c0.4,0,0.7-0.1,0.9-0.2c0.2-0.2,0.2-0.5,0.2-0.9v-1.1c0-0.5-0.1-0.8-0.2-0.9
		c-0.2-0.2-0.5-0.2-0.9-0.2h-8.1v3.5H91.5z"/>
	<path class="st0" d="M100,179.3h11.8c0.6,0,1,0,1.3,0.1c0.3,0.1,0.6,0.2,0.9,0.3c0.4,0.2,0.7,0.5,0.8,0.9c0.2,0.4,0.2,1,0.2,1.8
		v2.6c0,0.5,0,0.8-0.1,1.1c0,0.3-0.1,0.5-0.2,0.8c-0.2,0.5-0.5,0.8-1,1c-0.4,0.2-1.1,0.3-2,0.3h-8.9v5.4H100V179.3z M102.9,185.5
		h8.1c0.4,0,0.7-0.1,0.9-0.2c0.2-0.2,0.2-0.5,0.2-0.9v-1.1c0-0.5-0.1-0.8-0.2-0.9c-0.2-0.2-0.4-0.2-0.9-0.2h-8.1V185.5z"/>
	<path class="st0" d="M135.3,190.4c0,0.6-0.1,1.1-0.2,1.5c-0.1,0.4-0.3,0.7-0.5,1c-0.2,0.2-0.6,0.4-1,0.5c-0.4,0.1-0.9,0.2-1.5,0.2
		h-10.3c-0.6,0-1.1-0.1-1.5-0.2c-0.4-0.1-0.7-0.3-1-0.5c-0.2-0.2-0.4-0.6-0.5-1c-0.1-0.4-0.2-0.9-0.2-1.5v-8c0-1.2,0.2-2,0.7-2.4
		c0.5-0.5,1.3-0.7,2.4-0.7h10.3c1.2,0,2,0.2,2.4,0.7c0.5,0.5,0.7,1.3,0.7,2.4V190.4z M132.4,182h-10.7v8.7h10.7V182z"/>
	<path class="st0" d="M139.8,193.5v-14.3h11.8c0.6,0,1,0,1.3,0.1c0.3,0.1,0.6,0.2,0.9,0.3c0.4,0.2,0.7,0.5,0.8,0.9
		c0.2,0.4,0.2,1,0.2,1.8v2.6c0,0.5,0,0.8-0.1,1.1c0,0.3-0.1,0.5-0.2,0.8c-0.2,0.5-0.5,0.8-1,1c-0.4,0.2-1.1,0.3-2,0.3h-1.5l6.1,5.4
		H152l-5.7-5.4h-3.6v5.4H139.8z M150.8,185.5c0.4,0,0.7-0.1,0.9-0.2c0.2-0.2,0.2-0.5,0.2-0.9v-1.1c0-0.5-0.1-0.8-0.2-0.9
		c-0.2-0.2-0.5-0.2-0.9-0.2h-8.1v3.5H150.8z"/>
	<path class="st0" d="M164,179.3h3.5l7.8,14.3H172l-1.8-3.3H161l-1.7,3.3h-3L164,179.3z M168.8,187.6l-3.2-6l-3.2,6H168.8z"/>
	<polygon class="st0" points="184.6,193.5 181.7,193.5 181.7,182 175.1,182 175.1,179.3 191.1,179.3 191.1,182 184.6,182 	"/>
	<rect x="194" y="179.3" class="st0" width="2.9" height="14.3"/>
	<path class="st0" d="M217.9,190.4c0,0.6-0.1,1.1-0.2,1.5c-0.1,0.4-0.3,0.7-0.5,1c-0.2,0.2-0.6,0.4-1,0.5c-0.4,0.1-0.9,0.2-1.5,0.2
		h-10.3c-0.6,0-1.1-0.1-1.5-0.2c-0.4-0.1-0.7-0.3-1-0.5c-0.2-0.2-0.4-0.6-0.5-1c-0.1-0.4-0.2-0.9-0.2-1.5v-8c0-1.2,0.2-2,0.7-2.4
		c0.5-0.5,1.3-0.7,2.4-0.7h10.3c1.2,0,2,0.2,2.4,0.7c0.5,0.5,0.7,1.3,0.7,2.4V190.4z M215,182h-10.7v8.7H215V182z"/>
	<polygon class="st0" points="222.4,179.3 224.7,179.3 236.4,189.3 236.4,179.3 239.3,179.3 239.3,193.5 237,193.5 225.3,183.5 
		225.3,193.5 222.4,193.5 	"/>
</g>
</svg>
