<?xml version="1.0" encoding="utf-8"?>
<!-- Generator: Adobe Illustrator 22.0.1, SVG Export Plug-In . SVG Version: 6.00 Build 0)  -->
<svg version="1.1" id="Layer_1" xmlns="http://www.w3.org/2000/svg" xmlns:xlink="http://www.w3.org/1999/xlink" x="0px" y="0px"
	 viewBox="0 0 275.1 43.6" style="enable-background:new 0 0 275.1 43.6;" xml:space="preserve">
<style type="text/css">
	.st0{clip-path:url(#SVGID_2_);fill:#C09473;}
</style>
<g>
	<defs>
		<rect id="SVGID_1_" y="0" width="275.1" height="43.6"/>
	</defs>
	<clipPath id="SVGID_2_">
		<use xlink:href="#SVGID_1_"  style="overflow:visible;"/>
	</clipPath>
	<path class="st0" d="M86,32.4v9.8l0,1.4H0V27.8l0.6-0.6H1v-9.6c0,0,2.5-1.2,4.2,0.4v0.5l1.8,0.3v5.8L10,25v-2.3
		c0,0,0.5-0.6,1.8-0.3l3.2,0.5V11.6h0.9v-1.2h1.5V9.6l3.2-0.1c0,0,1.3,1.7,2.6,1.6h1.3V9.8l0.4-0.4V4.6l7.8-1.1l1,0.8v2.3l0.3-0.1V0
		l5.4,1.7v25l0.8,0.5v-2.1l0.2-0.5v-3.9l1-0.3v-2.6h4v2.4l1,0.4V25l0.4,0.4v9.9l0.9-0.2h4v0.7l0.7,0.3V13.2l0.7-0.3L53,6l1.1-1.2
		V2.5l0.1-0.6h4.7v3l1,1v6.7l0.8,0.5v5.6l5.7,0.8v22.7l0.1,0.4h1V24h0.8v-0.6h1.2V24l2.9,0.1v-0.6H73v19l2.9,0.1V29.4l5.2-1.6
		l3.6,0.1v4.5H86z"/>
	<polygon class="st0" points="94.8,14.5 97.1,14.5 97.1,20 107.7,20 107.7,14.5 110,14.5 110,28.1 107.7,28.1 107.7,22.1 97.1,22.1 
		97.1,28.1 94.8,28.1 	"/>
	<path class="st0" d="M118.8,14.5h3l7.4,13.6h-2.6l-1.8-3.3h-9.1l-1.8,3.3h-2.4L118.8,14.5z M123.8,22.8l-3.5-6.7l-3.5,6.7H123.8z"
		/>
	<polygon class="st0" points="137.7,28.1 135.5,28.1 135.5,16.7 129.3,16.7 129.3,14.5 144,14.5 144,16.7 137.7,16.7 	"/>
	<path class="st0" d="M151.3,14.5h3l7.4,13.6h-2.6l-1.8-3.3h-9.1l-1.8,3.3H144L151.3,14.5z M156.3,22.8l-3.5-6.7l-3.5,6.7H156.3z"/>
	<polygon class="st0" points="163.2,14.5 164.9,14.5 176.4,24.7 176.4,14.5 178.6,14.5 178.6,28.1 177,28.1 165.5,17.9 165.5,28.1 
		163.2,28.1 	"/>
	<path class="st0" d="M195.1,18.4v-1.7h-10.6V26h10.6v-3.6h-5.5v-2h7.8v4.8c0,0.6-0.1,1-0.2,1.4c-0.1,0.4-0.3,0.7-0.5,0.9
		c-0.2,0.2-0.5,0.4-0.9,0.5c-0.4,0.1-0.8,0.2-1.4,0.2h-9.2c-0.6,0-1-0.1-1.4-0.2c-0.4-0.1-0.7-0.3-0.9-0.5c-0.2-0.2-0.4-0.5-0.5-0.9
		c-0.1-0.4-0.2-0.9-0.2-1.4v-7.6c0-1.1,0.2-1.9,0.7-2.3c0.4-0.4,1.2-0.7,2.3-0.7h9.2c1.1,0,1.9,0.2,2.3,0.7c0.4,0.4,0.7,1.2,0.7,2.3
		v0.4L195.1,18.4z"/>
	<path class="st0" d="M201,14.5h9.3c1,0,1.7,0.1,2.3,0.2c0.6,0.1,1.1,0.3,1.5,0.6c0.7,0.4,1.2,1,1.5,1.8c0.3,0.8,0.5,1.9,0.5,3.2
		v1.9c0,0.8,0,1.4-0.1,2s-0.3,1-0.5,1.5c-0.3,0.7-0.8,1.2-1.4,1.6c-0.4,0.3-1,0.5-1.5,0.6c-0.6,0.1-1.4,0.2-2.3,0.2H201V14.5z
		 M210.3,26c0.6,0,1,0,1.4-0.1c0.3-0.1,0.6-0.2,0.9-0.4c0.4-0.3,0.7-0.6,0.9-1.1c0.2-0.5,0.3-1.1,0.3-1.9v-2.3c0-0.5,0-0.8-0.1-1.2
		c-0.1-0.3-0.1-0.6-0.3-0.9c-0.2-0.5-0.6-0.9-1.1-1.1c-0.5-0.2-1.1-0.3-2-0.3h-7V26H210.3z"/>
	<path class="st0" d="M234.7,25.1c0,0.6-0.1,1-0.2,1.4c-0.1,0.4-0.3,0.7-0.5,0.9c-0.2,0.2-0.5,0.4-0.9,0.5c-0.4,0.1-0.8,0.2-1.4,0.2
		h-9.2c-0.6,0-1-0.1-1.4-0.2c-0.4-0.1-0.7-0.3-0.9-0.5c-0.2-0.2-0.4-0.5-0.5-0.9c-0.1-0.4-0.2-0.9-0.2-1.4v-7.6
		c0-1.1,0.2-1.9,0.7-2.3c0.4-0.4,1.2-0.7,2.3-0.7h9.2c1.1,0,1.9,0.2,2.3,0.7c0.4,0.4,0.7,1.2,0.7,2.3V25.1z M232.4,16.7h-10.6V26
		h10.6V16.7z"/>
	<polygon class="st0" points="245.2,28.1 243,28.1 243,16.7 236.8,16.7 236.8,14.5 251.5,14.5 251.5,16.7 245.2,16.7 	"/>
	<polygon class="st0" points="253.8,14.5 256.1,14.5 256.1,20 266.7,20 266.7,14.5 269,14.5 269,28.1 266.7,28.1 266.7,22.1 
		256.1,22.1 256.1,28.1 253.8,28.1 	"/>
	<rect x="272.9" y="14.5" class="st0" width="2.3" height="13.6"/>
	<path class="st0" d="M103.6,37.8v-1.7h-6.9v5.6h6.9v-1.9l1.9,0.4v1.2c0,0.4,0,0.7-0.1,0.9c-0.1,0.3-0.2,0.5-0.3,0.6
		c-0.2,0.2-0.4,0.3-0.6,0.3c-0.3,0.1-0.6,0.1-1,0.1h-6.7c-0.4,0-0.7,0-1-0.1c-0.3-0.1-0.5-0.2-0.6-0.3c-0.2-0.2-0.3-0.4-0.3-0.6
		c-0.1-0.3-0.1-0.6-0.1-0.9v-5.2c0-0.8,0.1-1.3,0.4-1.6c0.3-0.3,0.8-0.5,1.6-0.5h6.7c0.8,0,1.3,0.2,1.6,0.5c0.3,0.3,0.5,0.8,0.5,1.6
		v1L103.6,37.8z"/>
	<path class="st0" d="M118.9,41.5c0,0.4,0,0.7-0.1,0.9c-0.1,0.3-0.2,0.5-0.3,0.6c-0.2,0.2-0.4,0.3-0.6,0.3c-0.3,0.1-0.6,0.1-1,0.1
		h-6.7c-0.4,0-0.7,0-1-0.1c-0.3-0.1-0.5-0.2-0.6-0.3c-0.2-0.2-0.3-0.4-0.3-0.6c-0.1-0.3-0.1-0.6-0.1-0.9v-5.2c0-0.8,0.1-1.3,0.4-1.6
		c0.3-0.3,0.8-0.5,1.6-0.5h6.7c0.8,0,1.3,0.2,1.6,0.5c0.3,0.3,0.5,0.8,0.5,1.6V41.5z M117,36.1h-6.9v5.6h6.9V36.1z"/>
	<path class="st0" d="M121.8,43.6v-9.2h7.7c0.4,0,0.6,0,0.8,0.1c0.2,0,0.4,0.1,0.6,0.2c0.3,0.2,0.4,0.4,0.5,0.6
		c0.1,0.3,0.1,0.6,0.1,1.2v1.7c0,0.3,0,0.6,0,0.7c0,0.2-0.1,0.3-0.2,0.5c-0.1,0.3-0.3,0.5-0.6,0.6c-0.3,0.1-0.7,0.2-1.3,0.2h-1
		l4,3.5h-2.7l-3.7-3.5h-2.3v3.5H121.8z M128.9,38.4c0.3,0,0.5-0.1,0.6-0.2c0.1-0.1,0.1-0.3,0.1-0.6v-0.7c0-0.3,0-0.5-0.1-0.6
		c-0.1-0.1-0.3-0.2-0.6-0.2h-5.2v2.2H128.9z"/>
	<path class="st0" d="M134.4,34.3h7.7c0.4,0,0.6,0,0.8,0.1s0.4,0.1,0.6,0.2c0.3,0.2,0.4,0.4,0.5,0.6c0.1,0.3,0.1,0.6,0.1,1.2v1.7
		c0,0.3,0,0.6,0,0.7c0,0.2-0.1,0.3-0.2,0.5c-0.1,0.3-0.3,0.5-0.6,0.6c-0.3,0.1-0.7,0.2-1.3,0.2h-5.8v3.5h-1.9V34.3z M136.3,38.4h5.2
		c0.3,0,0.5-0.1,0.6-0.2c0.1-0.1,0.1-0.3,0.1-0.6v-0.7c0-0.3-0.1-0.5-0.1-0.6c-0.1-0.1-0.3-0.2-0.6-0.2h-5.2V38.4z"/>
	<path class="st0" d="M157.3,41.5c0,0.4,0,0.7-0.1,0.9c-0.1,0.3-0.2,0.5-0.3,0.6c-0.2,0.2-0.4,0.3-0.6,0.3c-0.3,0.1-0.6,0.1-1,0.1
		h-6.7c-0.4,0-0.7,0-1-0.1c-0.3-0.1-0.5-0.2-0.6-0.3c-0.2-0.2-0.3-0.4-0.3-0.6c-0.1-0.3-0.1-0.6-0.1-0.9v-5.2c0-0.8,0.1-1.3,0.4-1.6
		c0.3-0.3,0.8-0.5,1.6-0.5h6.7c0.8,0,1.3,0.2,1.6,0.5c0.3,0.3,0.5,0.8,0.5,1.6V41.5z M155.4,36.1h-6.9v5.6h6.9V36.1z"/>
	<path class="st0" d="M160.2,43.6v-9.2h7.7c0.4,0,0.6,0,0.8,0.1c0.2,0,0.4,0.1,0.6,0.2c0.3,0.2,0.4,0.4,0.5,0.6
		c0.1,0.3,0.1,0.6,0.1,1.2v1.7c0,0.3,0,0.6,0,0.7c0,0.2-0.1,0.3-0.2,0.5c-0.1,0.3-0.3,0.5-0.6,0.6c-0.3,0.1-0.7,0.2-1.3,0.2h-1
		l4,3.5h-2.7l-3.7-3.5h-2.3v3.5H160.2z M167.3,38.4c0.3,0,0.5-0.1,0.6-0.2c0.1-0.1,0.1-0.3,0.1-0.6v-0.7c0-0.3,0-0.5-0.1-0.6
		c-0.1-0.1-0.3-0.2-0.6-0.2h-5.2v2.2H167.3z"/>
	<path class="st0" d="M175.9,34.3h2.3l5.1,9.2h-2.2l-1.1-2.1h-6l-1.1,2.1h-1.9L175.9,34.3z M179,39.7l-2.1-3.9l-2.1,3.9H179z"/>
	<polygon class="st0" points="189.2,43.6 187.4,43.6 187.4,36.1 183.1,36.1 183.1,34.3 193.5,34.3 193.5,36.1 189.2,36.1 	"/>
	<rect x="195.3" y="34.3" class="st0" width="1.9" height="9.2"/>
	<path class="st0" d="M210.9,41.5c0,0.4,0,0.7-0.1,0.9c-0.1,0.3-0.2,0.5-0.3,0.6c-0.2,0.2-0.4,0.3-0.6,0.3c-0.3,0.1-0.6,0.1-1,0.1
		h-6.7c-0.4,0-0.7,0-1-0.1c-0.3-0.1-0.5-0.2-0.6-0.3c-0.2-0.2-0.3-0.4-0.3-0.6c-0.1-0.3-0.1-0.6-0.1-0.9v-5.2c0-0.8,0.2-1.3,0.4-1.6
		c0.3-0.3,0.8-0.5,1.6-0.5h6.7c0.8,0,1.3,0.2,1.6,0.5c0.3,0.3,0.5,0.8,0.5,1.6V41.5z M209,36.1H202v5.6h6.9V36.1z"/>
	<polygon class="st0" points="213.7,34.3 215.2,34.3 222.8,40.9 222.8,34.3 224.7,34.3 224.7,43.6 223.2,43.6 215.7,37.1 
		215.7,43.6 213.7,43.6 	"/>
</g>
</svg>
