<?xml version="1.0" encoding="utf-8"?>
<!-- Generator: Adobe Illustrator 22.0.1, SVG Export Plug-In . SVG Version: 6.00 Build 0)  -->
<svg version="1.1" id="Layer_1" xmlns="http://www.w3.org/2000/svg" xmlns:xlink="http://www.w3.org/1999/xlink" x="0px" y="0px"
	 viewBox="0 0 56.5 28.6" style="enable-background:new 0 0 56.5 28.6;" xml:space="preserve">
<style type="text/css">
	.st0{clip-path:url(#SVGID_2_);fill:#C09473;}
</style>
<g>
	<defs>
		<rect id="SVGID_1_" y="0" width="56.5" height="28.6"/>
	</defs>
	<clipPath id="SVGID_2_">
		<use xlink:href="#SVGID_1_"  style="overflow:visible;"/>
	</clipPath>
	<path class="st0" d="M56.5,21.3v6.4l0,0.9H0V18.3l0.4-0.4h0.3v-6.3c0,0,1.6-0.8,2.8,0.3v0.3l1.2,0.2v3.8l1.9,0.2v-1.5
		c0,0,0.3-0.4,1.2-0.2l2.1,0.3V7.6h0.6V6.8h1V6.3l2.1,0c0,0,0.9,1.1,1.7,1.1h0.9V6.5l0.2-0.3V3.1l5.1-0.7l0.6,0.6v1.5l0.2-0.1V0
		l3.6,1.1v16.5l0.5,0.3v-1.4l0.1-0.3v-2.5l0.6-0.2v-1.7h2.6v1.6l0.7,0.3v2.9l0.2,0.3v6.5l0.6-0.1h2.6v0.5l0.4,0.2v-15l0.5-0.2l0-4.5
		l0.7-0.8V1.6l0.1-0.4h3.1v2l0.6,0.6v4.4l0.5,0.3v3.7l3.7,0.6v14.9l0,0.3h0.6V15.8h0.5v-0.4h0.8v0.3l1.9,0.1v-0.4H48v12.5l1.9,0.1
		v-8.7l3.4-1.1l2.4,0.1v2.9H56.5z"/>
</g>
</svg>
