<?xml version="1.0" encoding="utf-8"?>
<!-- Generator: Adobe Illustrator 22.0.1, SVG Export Plug-In . SVG Version: 6.00 Build 0)  -->
<svg version="1.1" id="Layer_1" xmlns="http://www.w3.org/2000/svg" xmlns:xlink="http://www.w3.org/1999/xlink" x="0px" y="0px"
	 viewBox="0 0 510.8 77.4" style="enable-background:new 0 0 510.8 77.4;" xml:space="preserve">
<style type="text/css">
	.st0{clip-path:url(#SVGID_2_);fill:#FFFFFF;}
</style>
<g>
	<defs>
		<rect id="SVGID_1_" y="0" width="510.8" height="77.4"/>
	</defs>
	<clipPath id="SVGID_2_">
		<use xlink:href="#SVGID_1_"  style="overflow:visible;"/>
	</clipPath>
	<path class="st0" d="M96.4,61v-4.7H76.8v16h19.6V67l5.4,1.1v3.5c0,1.1-0.1,2-0.3,2.7c-0.2,0.7-0.5,1.3-1,1.8c-0.5,0.5-1,0.8-1.8,1
		c-0.7,0.2-1.6,0.3-2.7,0.3H77.2c-1.1,0-2-0.1-2.7-0.3c-0.7-0.2-1.3-0.5-1.8-1c-0.5-0.5-0.8-1.1-1-1.8c-0.2-0.7-0.3-1.6-0.3-2.7V57
		c0-2.1,0.4-3.6,1.3-4.5c0.8-0.9,2.3-1.3,4.5-1.3H96c2.1,0,3.6,0.4,4.5,1.3c0.9,0.9,1.3,2.3,1.3,4.5v2.9L96.4,61z"/>
	<path class="st0" d="M139.7,71.7c0,1.1-0.1,1.9-0.3,2.7c-0.2,0.7-0.5,1.3-1,1.8c-0.5,0.5-1,0.8-1.8,1c-0.7,0.2-1.6,0.3-2.7,0.3
		h-18.8c-1.1,0-2-0.1-2.7-0.3c-0.7-0.2-1.3-0.5-1.8-1c-0.5-0.5-0.8-1.1-1-1.8c-0.2-0.7-0.3-1.6-0.3-2.7V57c0-2.1,0.4-3.6,1.3-4.5
		c0.8-0.9,2.3-1.3,4.5-1.3h18.8c2.1,0,3.6,0.4,4.5,1.3c0.9,0.9,1.3,2.3,1.3,4.5V71.7z M134.3,56.4h-19.6v16h19.6V56.4z"/>
	<path class="st0" d="M147.9,77.4V51.3h21.7c1,0,1.8,0.1,2.4,0.2c0.6,0.1,1.1,0.3,1.6,0.6c0.7,0.4,1.2,1,1.5,1.7s0.4,1.8,0.4,3.3
		v4.8c0,0.9,0,1.6-0.1,2c-0.1,0.5-0.2,0.9-0.4,1.4c-0.4,0.8-0.9,1.4-1.7,1.8c-0.8,0.3-2,0.5-3.6,0.5h-2.8l11.3,9.9h-7.8l-10.5-9.9
		h-6.5v9.9H147.9z M168.1,62.7c0.8,0,1.4-0.1,1.6-0.4c0.3-0.3,0.4-0.9,0.4-1.7v-2c0-0.9-0.1-1.4-0.4-1.7c-0.3-0.3-0.8-0.4-1.6-0.4
		h-14.8v6.4H168.1z"/>
	<path class="st0" d="M183.6,51.3h21.7c1,0,1.8,0.1,2.4,0.2c0.6,0.1,1.1,0.3,1.6,0.6c0.7,0.4,1.2,1,1.5,1.7c0.3,0.7,0.4,1.8,0.4,3.3
		v4.8c0,0.9,0,1.6-0.1,2c-0.1,0.5-0.2,0.9-0.4,1.4c-0.4,0.8-0.9,1.4-1.8,1.8c-0.8,0.3-2,0.5-3.6,0.5H189v9.9h-5.4V51.3z M189,62.7
		h14.8c0.8,0,1.4-0.1,1.6-0.4c0.3-0.3,0.4-0.9,0.4-1.7v-2c0-0.9-0.1-1.4-0.4-1.7c-0.3-0.3-0.8-0.4-1.6-0.4H189V62.7z"/>
	<path class="st0" d="M248.5,71.7c0,1.1-0.1,1.9-0.3,2.7c-0.2,0.7-0.5,1.3-1,1.8c-0.5,0.5-1,0.8-1.8,1c-0.7,0.2-1.6,0.3-2.7,0.3
		h-18.8c-1.1,0-2-0.1-2.7-0.3c-0.7-0.2-1.3-0.5-1.8-1c-0.5-0.5-0.8-1.1-1-1.8c-0.2-0.7-0.3-1.6-0.3-2.7V57c0-2.1,0.4-3.6,1.3-4.5
		c0.8-0.9,2.3-1.3,4.5-1.3h18.8c2.1,0,3.6,0.4,4.5,1.3c0.9,0.9,1.3,2.3,1.3,4.5V71.7z M243.1,56.4h-19.6v16h19.6V56.4z"/>
	<path class="st0" d="M256.7,77.4V51.3h21.7c1,0,1.8,0.1,2.4,0.2c0.6,0.1,1.1,0.3,1.6,0.6c0.7,0.4,1.2,1,1.5,1.7
		c0.3,0.7,0.4,1.8,0.4,3.3v4.8c0,0.9,0,1.6-0.1,2c-0.1,0.5-0.2,0.9-0.4,1.4c-0.4,0.8-0.9,1.4-1.8,1.8c-0.8,0.3-2,0.5-3.6,0.5h-2.8
		l11.3,9.9h-7.8l-10.5-9.9h-6.5v9.9H256.7z M276.8,62.7c0.8,0,1.4-0.1,1.6-0.4c0.3-0.3,0.4-0.9,0.4-1.7v-2c0-0.9-0.1-1.4-0.4-1.7
		c-0.3-0.3-0.8-0.4-1.6-0.4h-14.8v6.4H276.8z"/>
	<path class="st0" d="M301.1,51.3h6.4l14.3,26.2h-6.1l-3.2-6h-16.9l-3.2,6h-5.5L301.1,51.3z M309.9,66.5l-5.8-10.9l-5.8,10.9H309.9z
		"/>
	<polygon class="st0" points="339,77.4 333.6,77.4 333.6,56.4 321.6,56.4 321.6,51.3 351,51.3 351,56.4 339,56.4 	"/>
	<rect x="356.2" y="51.3" class="st0" width="5.4" height="26.2"/>
	<path class="st0" d="M400.2,71.7c0,1.1-0.1,1.9-0.3,2.7c-0.2,0.7-0.5,1.3-1,1.8c-0.5,0.5-1,0.8-1.8,1c-0.7,0.2-1.6,0.3-2.7,0.3
		h-18.8c-1.1,0-2-0.1-2.7-0.3c-0.7-0.2-1.3-0.5-1.8-1c-0.5-0.5-0.8-1.1-1-1.8c-0.2-0.7-0.3-1.6-0.3-2.7V57c0-2.1,0.4-3.6,1.3-4.5
		c0.8-0.9,2.3-1.3,4.5-1.3h18.8c2.1,0,3.6,0.4,4.5,1.3c0.9,0.9,1.3,2.3,1.3,4.5V71.7z M394.8,56.4h-19.6v16h19.6V56.4z"/>
	<polygon class="st0" points="408.3,51.3 412.6,51.3 434,69.7 434,51.3 439.4,51.3 439.4,77.4 435.1,77.4 413.7,59 413.7,77.4 
		408.3,77.4 	"/>
	<polygon class="st0" points="0,0 7.8,0 7.8,12.6 32.2,12.6 32.2,0 40,0 40,33.7 32.2,33.7 32.2,19.7 7.8,19.7 7.8,33.7 0,33.7 	"/>
	<path class="st0" d="M62.4,0H70l19.3,33.7h-8.8l-3.9-7.4H55.2l-4,7.4h-7.8L62.4,0z M72.8,19.1L66,6.6l-6.9,12.6H72.8z"/>
	<polygon class="st0" points="126.4,33.7 118.6,33.7 118.6,7.5 103.1,7.5 103.1,0 141.9,0 141.9,7.5 126.4,7.5 	"/>
	<path class="st0" d="M160.6,0h7.6l19.3,33.7h-8.8l-3.9-7.4h-21.4l-4,7.4h-7.8L160.6,0z M170.9,19.1l-6.8-12.6l-6.9,12.6H170.9z"/>
	<polygon class="st0" points="190.8,0 197,0 224.2,22.9 224.2,0 232,0 232,33.7 225.9,33.7 198.7,10.8 198.7,33.7 190.8,33.7 	"/>
	<path class="st0" d="M272.6,10.4V7.5h-24.4v18.7h24.4v-5.1H260V14h20.4v12.3c0,1.4-0.1,2.5-0.4,3.5c-0.3,0.9-0.7,1.7-1.3,2.3
		c-0.6,0.6-1.3,1-2.3,1.3c-0.9,0.3-2.1,0.4-3.5,0.4h-25.2c-1.4,0-2.5-0.1-3.5-0.4c-0.9-0.3-1.7-0.7-2.3-1.3c-0.6-0.6-1-1.3-1.3-2.3
		c-0.3-0.9-0.4-2.1-0.4-3.5V7.4c0-2.7,0.5-4.6,1.6-5.8c1.1-1.1,3-1.7,5.7-1.7H273c1.4,0,2.5,0.1,3.5,0.4c0.9,0.3,1.7,0.7,2.3,1.3
		c0.6,0.6,1,1.3,1.3,2.3c0.3,1,0.4,2.1,0.4,3.5v1.4L272.6,10.4z"/>
	<path class="st0" d="M303,0h25.6c1.2,0,2.3,0,3.2,0.1c0.9,0.1,1.8,0.2,2.5,0.3c0.8,0.2,1.4,0.4,2,0.6c0.6,0.2,1.2,0.6,1.8,0.9
		c1.7,1.1,3,2.6,3.7,4.6c0.8,2,1.1,4.6,1.1,7.9v4.8c0,2-0.1,3.6-0.3,4.9c-0.2,1.3-0.6,2.5-1.1,3.7c-0.8,1.7-1.9,3-3.4,3.9
		c-0.6,0.4-1.1,0.7-1.8,0.9c-0.6,0.2-1.3,0.4-2,0.6c-0.8,0.2-1.6,0.3-2.5,0.3c-0.9,0.1-2,0.1-3.2,0.1H303V0z M329.2,26.2
		c2.3,0,3.8-0.5,4.7-1.4c0.9-0.9,1.3-2.6,1.3-4.9v-6.1c0-2.4-0.4-4-1.3-4.9c-0.9-0.9-2.5-1.4-4.7-1.4h-18.3v18.7H329.2z"/>
	<path class="st0" d="M390.8,26.3c0,1.4-0.1,2.5-0.4,3.5s-0.7,1.7-1.3,2.3c-0.6,0.6-1.3,1-2.3,1.3c-0.9,0.3-2.1,0.4-3.5,0.4h-25.2
		c-1.4,0-2.5-0.1-3.5-0.4c-0.9-0.3-1.7-0.7-2.3-1.3c-0.6-0.6-1-1.3-1.3-2.3c-0.3-0.9-0.4-2.1-0.4-3.5V7.4c0-2.7,0.5-4.6,1.6-5.8
		c1.1-1.1,3-1.7,5.7-1.7h25.2c1.4,0,2.5,0.1,3.5,0.4c0.9,0.3,1.7,0.7,2.3,1.3c0.6,0.6,1,1.3,1.3,2.3c0.3,1,0.4,2.1,0.4,3.5V26.3z
		 M383,7.5h-24.4v18.7H383V7.5z"/>
	<polygon class="st0" points="433,33.7 425.2,33.7 425.2,7.5 409.7,7.5 409.7,0 448.5,0 448.5,7.5 433,7.5 	"/>
	<polygon class="st0" points="453.9,0 461.7,0 461.7,12.6 486.1,12.6 486.1,0 493.9,0 493.9,33.7 486.1,33.7 486.1,19.7 461.7,19.7 
		461.7,33.7 453.9,33.7 	"/>
	<rect x="503" y="0" class="st0" width="7.8" height="33.7"/>
</g>
</svg>
